<svg xmlns="http://www.w3.org/2000/svg" width="20mm" height="20mm" viewBox="0 0 20 20"><defs><radialGradient id="a" cx="110.002" cy="110" r="116.159" fx="110.002" fy="110" gradientTransform="matrix(.26458 0 0 .26459 27.183 10.51)" gradientUnits="userSpaceOnUse"><stop offset="0" stop-color="#b10000"/><stop offset=".629" stop-color="red"/><stop offset="1" stop-color="#b10000"/></radialGradient></defs><path fill="url(#radial-gradient)" d="M56.287 68.718a29.32 29.32 0 0 1-5.866-.591 28.945 28.945 0 0 1-10.406-4.38A29.189 29.189 0 0 1 29.47 50.942a28.958 28.958 0 0 1-1.695-5.463 29.388 29.388 0 0 1 0-11.732 28.945 28.945 0 0 1 4.378-10.405 29.189 29.189 0 0 1 12.806-10.545 28.957 28.957 0 0 1 5.463-1.696 29.388 29.388 0 0 1 11.731 0 28.945 28.945 0 0 1 10.406 4.38 29.19 29.19 0 0 1 10.544 12.805 28.957 28.957 0 0 1 1.696 5.463 29.388 29.388 0 0 1 0 11.731 28.945 28.945 0 0 1-4.379 10.406A29.19 29.19 0 0 1 67.614 66.43a28.958 28.958 0 0 1-5.463 1.696 29.32 29.32 0 0 1-5.864.592zm0-38.365a9.26 9.26 0 1 0 9.26 9.26 9.271 9.271 0 0 0-9.26-9.26z" data-name="Subtraction 5" style="fill:url(#a);stroke-width:.264583" transform="translate(-9.34 -3.611) scale(.3436)"/><path fill="none" stroke="#8cfcff" stroke-linecap="round" stroke-width=".18176440000000002" d="m4.59 6.619.637.909" data-name="Line 1"/><path fill="none" stroke="#ff48e0" stroke-width=".18176440000000002" d="M4.59 10.586h.637" data-name="Line 2"/><path fill="none" stroke="#ff48e0" stroke-width=".18176440000000002" d="M4.954 12.383v.727" data-name="Line 3"/><path fill="none" stroke="#fff800" stroke-linecap="round" stroke-width=".18176440000000002" d="m3.318 9.142-.727.455" data-name="Line 4"/><path fill="none" stroke="#00a0fd" stroke-linecap="round" stroke-width=".18176440000000002" d="m9.045 14.634.91.818" data-name="Line 5"/><path fill="none" stroke="#ff48e0" stroke-width=".18176440000000002" d="m7.409 15.088-.818.363" data-name="Line 6"/><path fill="none" stroke="#00a0fd" stroke-linecap="round" stroke-width=".18176440000000002" d="M12.59 14.64h.82" data-name="Line 7"/><path fill="none" stroke="#00a0fd" stroke-width=".18176440000000002" d="m16.5 11.844-.09.546" data-name="Line 8"/><path fill="none" stroke="#00a0fd" stroke-width=".18176440000000002" d="m15.591 8.157.909-.637" data-name="Line 9"/><path fill="none" stroke="#ff48e0" stroke-width=".18176440000000002" d="m15.227 5.097.364-1" data-name="Line 10"/><path fill="none" stroke="#8cfcff" stroke-linecap="round" stroke-width=".18176440000000002" d="M12.136 5.09h-.727" data-name="Line 11"/><path fill="none" stroke="#707070" stroke-width=".09105400000000001" d="M9.045 5.09" data-name="Line 13"/><path fill="none" stroke="#00a0fd" stroke-width=".18176440000000002" d="M5.863 5.09h-.636" data-name="Line 14"/><path fill="none" stroke="#ff48e0" stroke-width=".18176440000000002" d="M5.863 3.591v-.727" data-name="Line 15"/><path fill="none" stroke="#ff48e0" stroke-width=".18176440000000002" d="M3.863 5.09h-.727" data-name="Line 16"/><path fill="none" stroke="#fff800" stroke-linecap="round" stroke-width=".18176440000000002" d="M9.954 3.591v-.364" data-name="Line 17"/><path fill="none" stroke="#fff800" stroke-linecap="round" stroke-width=".18176440000000002" d="M8.136 6.622h.91" data-name="Line 18"/><path fill="none" stroke="#ff48e0" stroke-width=".18176440000000002" d="m14.682 11.215.545.182" data-name="Line 19"/><path fill="none" stroke="#00a0fd" stroke-width=".18176440000000002" d="M12.864 1.954v.91" data-name="Line 21"/><path fill="none" stroke="#fff800" stroke-linecap="round" stroke-width=".18176440000000002" d="M7.409 12.746v.363" data-name="Line 23"/><path fill="none" stroke="#fff800" stroke-linecap="round" stroke-width=".18176440000000002" d="m11.773 17.227.363.546" data-name="Line 24"/><path fill="none" stroke="#00a0fd" stroke-width=".18176440000000002" d="m13.045 12.116.364.273" data-name="Line 25"/><path fill="none" stroke="#fff800" stroke-linecap="round" stroke-width=".18176440000000002" d="m14.682 9.15.545-1" data-name="Line 26"/><path fill="none" stroke="#00a0fd" stroke-width=".18176440000000002" d="m12.864 7.075.545-.455" data-name="Line 27"/><path fill="none" stroke="#00a0fd" stroke-width=".18176440000000002" d="M3.318 7.518 2.954 8.7" data-name="Line 28"/><path fill="none" stroke="#00a0fd" stroke-linecap="round" stroke-width=".18176440000000002" d="M3.318 12.39v-.546" data-name="Line 29"/></svg>